<svg width="58" height="80" xmlns="http://www.w3.org/2000/svg">
  <title>
    Bee
  </title>
  <g fill="none">
    <path d="M38.4 16.47c-1.3 0-2.34-1.05-2.34-2.35C36.06 5.28 39.58 0 45.46 0c1.3 0 2.36 1.05 2.36 2.35S46.77 4.7 45.47 4.7c-4.25 0-4.7 6.6-4.7 9.42 0 1.3-1.06 2.35-2.36 2.35zm-18.8 0c-1.3 0-2.37-1.05-2.37-2.35 0-2.83-.46-9.4-4.7-9.4-1.3 0-2.36-1.07-2.36-2.37S11.22 0 12.52 0c5.9 0 9.4 5.28 9.4 14.12 0 1.3-1.04 2.35-2.34 2.35z" fill="#242424"/>
    <path d="M29 80c-8.3 0-16.47-8.16-16.47-16.47L29 28.23l16.47 35.3C45.47 71.83 37.3 80 29 80z" fill="#FFD464"/>
    <path d="M29 28.23l-2.23 4.8L41 63.53c0 7.55-6.76 14.97-14.23 16.24.73.13 1.48.22 2.23.22 8.3 0 16.47-8.2 16.47-16.5L29 28.2v.02z" fill="#F2C95F"/>
    <path d="M18.02 51.77h21.96l-2.2-4.7H20.22l-2.2 4.7zm-3.3 7.05h28.55l-2.2-4.7H16.93l-2.2 4.7zm-2.2 4.7c0 .8.1 1.57.24 2.35h32.48c.14-.78.23-1.56.23-2.35l-1.1-2.36H13.62l-1.1 2.36zm3.45 9.4h26.06c1.1-1.44 2-3.03 2.6-4.7H13.38c.6 1.67 1.5 3.26 2.6 4.7z" fill="#242424"/>
    <path d="M40.77 28.23H17.23c-1.3 0-2.36-1.05-2.36-2.35 0-4.65 0-18.82 14.12-18.82s14.1 14.17 14.1 18.82c0 1.3-1.07 2.36-2.37 2.36z" fill="#263740"/>
    <path d="M29 7.06c-.62 0-1.2.04-1.77.1C39 8.63 39 21.43 39 25.8c0 1.3-1.05 2.36-2.35 2.36H16.72c.17.03.34.06.5.06h23.54c1.3 0 2.36-1.06 2.36-2.36 0-4.65 0-18.82-14.12-18.82z" fill="#1E2C33"/>
    <path d="M29 18.73C15.28 18.73.77 41.68.77 54.03.77 62.7 7.3 66 13 66c9.06 0 13.5-11.3 16-23 2.5 11.7 6.94 23 16 23 5.7 0 12.23-3.3 12.23-11.98 0-12.34-14.5-35.3-28.23-35.3z" fill="#FFC066"/>
    <path d="M29 18.73V43c2.5 11.7 6.94 23 16 23 5.7 0 12.23-3.3 12.23-11.98 0-12.34-14.5-35.3-28.23-35.3z" fill="#F2B661"/>
    <path d="M57.23 54.06C57.2 41.7 42.7 18.82 29 18.82c-.7 0-1.4.08-2.12.2C39.94 21.16 53 42.4 53 54.1c0 7-5.3 10.6-9.98 11.68.63.13 1.3.2 1.98.2 5.68 0 12.2-3.3 12.23-11.94z" fill="#E6AD5C"/>
    <path d="M18.1 75.3C21.12 78.12 25.04 80 29 80s7.88-1.87 10.9-4.7H18.1z" fill="#242424"/>
    <path d="M10.1 65.7c.97.2 1.95.3 2.9.3 9.06 0 13.5-11.3 16-23-2.86 6.67-11.32 20.2-18.9 22.7z" fill="#E6AD5C"/>
    <path d="M4.76 55.02c-.55 0-1-.45-1-1 0-7.6 6.12-19.52 13.64-26.58.4-.37 1.04-.35 1.42.05.38.4.36 1-.04 1.4-7.05 6.6-13 18.1-13 25.1 0 .53-.45 1-1 1h-.02z" fill="#FFD599"/>
  </g>
</svg>
